# xmcd CD database file
#
# Track frame offsets:
#	150
#	30615
#	53027
#	61290
#	89307
#	101715
#	126642
#	145885
#	162167
#	191352
#	223139
#
# Disc length: 3213 seconds
#
# Revision: 0
# Processed by: cddbd v1.5PL3 Copyright (c) Steve Scherf et al.
# Submitted via: CDex 1.51
#
DISCID=9f0c8b0b
DTITLE=Waterboys and Mike Scott - Music Pot Luck
DYEAR=2004
DGENRE=Blues
TTITLE0=Don't Bang the Drum
TTITLE1=The Whole of the Moon
TTITLE2=Spirit
TTITLE3=The Pan Within
TTITLE4=Medicine Bow
TTITLE5=Old England
TTITLE6=Be My Enemy
TTITLE7=Trumpets
TTITLE8=This is the Sea
TTITLE9=Spirit (live)
TTITLE10=Bring 'em all in
EXTD=YEAR: 2004
EXTT0=
EXTT1=
EXTT2=
EXTT3=
EXTT4=
EXTT5=
EXTT6=
EXTT7=
EXTT8=
EXTT9=
EXTT10=
PLAYORDER=
